<?xml version="1.0" encoding="UTF-8" standalone="no"?>
<!DOCTYPE svg PUBLIC "-//W3C//DTD SVG 1.1//EN" "http://www.w3.org/Graphics/SVG/1.1/DTD/svg11.dtd">
<svg width="100%" height="100%" viewBox="0 0 1080 1080" version="1.1" xmlns="http://www.w3.org/2000/svg" xmlns:xlink="http://www.w3.org/1999/xlink" xml:space="preserve" xmlns:serif="http://www.serif.com/" style="fill-rule:evenodd;clip-rule:evenodd;stroke-linecap:round;stroke-linejoin:round;stroke-miterlimit:1.5;">
    <g id="Background" transform="matrix(1.29032,0,0,1.29032,-217.419,-213.548)">
        <g id="Outline" transform="matrix(0.775,0,0,0.775,146.8,194.175)">
            <circle cx="568" cy="503" r="540" style="fill:rgb(43,54,65);stroke:rgb(44,54,65);stroke-width:1px;"/>
        </g>
        <circle id="Circle" cx="587" cy="584" r="403" style="fill:rgb(43,68,96);stroke:rgb(43,68,96);stroke-width:0.78px;stroke-linecap:butt;stroke-miterlimit:2;"/>
    </g>
    <g transform="matrix(1.65414,0,0,1.65414,-38.9409,76.8453)">
        <path d="M457.5,260.51C450.535,258.6 443.078,260.51 437.879,265.53L437.836,265.53L370.457,332.905L370.457,157.235C370.457,149.922 366.555,143.169 360.227,139.512C353.895,135.859 346.094,135.859 339.766,139.512C333.434,143.164 329.536,149.922 329.536,157.235L329.536,332.915L262.157,265.532L262.157,265.535C256.958,260.516 249.501,258.606 242.532,260.516C235.567,262.43 230.122,267.875 228.208,274.84C226.298,281.809 228.208,289.27 233.228,294.465L335.528,396.765C339.363,400.617 344.574,402.781 350.012,402.781C355.449,402.781 360.664,400.616 364.5,396.765L466.8,294.465C471.819,289.266 473.729,281.809 471.815,274.84C469.905,267.875 464.464,262.43 457.491,260.516L457.5,260.51Z" style="fill:rgb(198,198,198);fill-rule:nonzero;"/>
        <path d="M538,92C488.137,42.133 420.53,14.086 350,14.004L349.996,14C279.449,14 211.796,42.023 161.906,91.906C112.019,141.793 83.996,209.446 83.996,279.996C83.996,350.546 112.019,418.196 161.906,468.086C211.789,517.973 279.446,545.996 349.996,545.996C420.546,545.996 488.196,517.973 538.086,468.086C587.973,418.203 615.996,350.546 615.996,279.996C615.914,209.473 587.867,141.866 537.996,91.996L538,92ZM509.078,439.06C466.883,481.259 409.676,504.994 350.008,505.064L350.004,505.068C290.309,505.068 233.054,481.353 190.854,439.142C148.643,396.931 124.928,339.689 124.928,279.992C124.928,220.293 148.639,163.042 190.854,120.842C233.065,78.631 290.307,54.916 350.004,54.916C409.701,54.916 466.954,78.627 509.154,120.842C551.365,163.053 575.08,220.299 575.08,279.992C575.01,339.664 551.275,396.872 509.08,439.062L509.078,439.06Z" style="fill:rgb(198,198,198);fill-rule:nonzero;"/>
    </g>
</svg>
